<svg class="svg" width="12" height="18" viewBox="0 0 12 18" xmlns="http://www.w3.org/2000/svg"><path d="M6 9c0-1.657 1.343-3 3-3 1.657 0 3 1.343 3 3 0 1.657-1.343 3-3 3-1.657 0-3-1.343-3-3z" fill-rule="nonzero" fill-opacity="1" fill="#1abcfe" stroke="none"></path><path d="M0 15c0-1.657 1.343-3 3-3h3v3c0 1.657-1.343 3-3 3-1.657 0-3-1.343-3-3z" fill-rule="nonzero" fill-opacity="1" fill="#0acf83" stroke="none"></path><path d="M6 0v6h3c1.657 0 3-1.343 3-3 0-1.657-1.343-3-3-3H6z" fill-rule="nonzero" fill-opacity="1" fill="#ff7262" stroke="none"></path><path d="M0 3c0 1.657 1.343 3 3 3h3V0H3C1.343 0 0 1.343 0 3z" fill-rule="nonzero" fill-opacity="1" fill="#f24e1e" stroke="none"></path><path d="M0 9c0 1.657 1.343 3 3 3h3V6H3C1.343 6 0 7.343 0 9z" fill-rule="nonzero" fill-opacity="1" fill="#a259ff" stroke="none"></path></svg>